<svg width="28" height="21" viewBox="0 0 28 21" fill="none" xmlns="http://www.w3.org/2000/svg">
<path fill-rule="evenodd" clip-rule="evenodd" d="M9.0678 2.66368C5.49213 4.67842 2.84173 7.54178 1.35914 10.4182C-0.0946695 13.2388 -0.539998 16.3319 0.807012 18.6088C1.50318 19.7856 2.54809 20.5049 3.80858 20.8158C5.02482 21.1157 6.39123 21.0255 7.79422 20.7169C10.593 20.1012 13.9184 18.5268 17.3188 16.6109C20.7191 14.6949 23.7789 12.6716 25.7247 10.6139C26.7 9.58242 27.4633 8.47265 27.8052 7.29472C28.1596 6.07393 28.0438 4.83116 27.3476 3.65438C26.0006 1.37743 23.0332 0.207268 19.8033 0.0257085C16.5096 -0.159444 12.6435 0.648947 9.0678 2.66368ZM2.8486 17.4585C2.07991 16.1591 2.16665 13.9713 3.46513 11.4521C3.68776 11.0201 3.94275 10.586 4.22909 10.154C4.41319 10.2421 4.60444 10.3288 4.80061 10.4177C6.09371 11.0038 7.60036 11.6866 8.67867 13.5094C9.00416 14.0596 9.72505 14.2481 10.2888 13.9304C10.8526 13.6128 11.0457 12.9092 10.7203 12.359C9.24027 9.85729 7.02333 8.87264 5.72958 8.29802L5.68905 8.28002C6.20142 7.71312 6.76924 7.16211 7.38999 6.63801C7.47438 6.71675 7.57229 6.78449 7.68249 6.83766C7.87894 6.93246 8.08383 7.02532 8.29438 7.12074C9.58748 7.70682 11.0942 8.3897 12.1725 10.2124C12.498 10.7626 13.2189 10.9512 13.7826 10.6335C14.3464 10.3158 14.5396 9.6123 14.2141 9.0621C12.8268 6.71712 10.7921 5.70506 9.47704 5.11422C9.72759 4.95683 9.98411 4.80398 10.2465 4.65614C10.5909 4.4621 10.9378 4.28092 11.2863 4.11227C11.3984 4.28891 11.5608 4.43811 11.7657 4.53697C11.9621 4.63177 12.167 4.72463 12.3775 4.82006C13.6706 5.40613 15.1773 6.08901 16.2557 7.91176C16.5812 8.46196 17.302 8.65047 17.8658 8.33281C18.4296 8.01515 18.6227 7.31161 18.2972 6.76141C17.0709 4.68844 15.3385 3.6571 14.0447 3.03756C16.0157 2.44572 17.951 2.22609 19.6678 2.32259C22.5525 2.48475 24.5373 3.50536 25.306 4.80472C25.6677 5.41609 25.7268 6.01404 25.5371 6.66762C25.3349 7.36407 24.835 8.16232 23.9922 9.05359C22.3017 10.8414 19.5049 12.7224 16.1401 14.6184C12.7752 16.5144 9.70761 17.9376 7.27585 18.4725C6.06356 18.7392 5.10528 18.7626 4.38618 18.5852C3.71134 18.4188 3.21028 18.0699 2.8486 17.4585Z" fill="#5F5F5F"/>
</svg>
