<svg width="22" height="25" viewBox="0 0 22 25" fill="none" xmlns="http://www.w3.org/2000/svg">
<path fill-rule="evenodd" clip-rule="evenodd" d="M7 1C7 0.447715 7.44772 0 8 0H14C14.5523 0 15 0.447715 15 1V3H21C21.5523 3 22 3.44772 22 4C22 4.55228 21.5523 5 21 5H1C0.447715 5 0 4.55228 0 4C0 3.44772 0.447715 3 1 3H7V1ZM9 3H13V2H9V3Z" fill="#5F5F5F"/>
<path d="M9 11C9.55229 11 10 11.4477 10 12V20C10 20.5523 9.55229 21 9 21C8.44771 21 8 20.5523 8 20V12C8 11.4477 8.44771 11 9 11Z" fill="#5F5F5F"/>
<path d="M14 12C14 11.4477 13.5523 11 13 11C12.4477 11 12 11.4477 12 12V20C12 20.5523 12.4477 21 13 21C13.5523 21 14 20.5523 14 20V12Z" fill="#5F5F5F"/>
<path fill-rule="evenodd" clip-rule="evenodd" d="M2.24455 7.3448C2.43448 7.1258 2.71011 7 3 7H19C19.2899 7 19.5655 7.1258 19.7555 7.3448C19.9454 7.5638 20.0309 7.85444 19.99 8.14142L17.9495 22.4243C17.7384 23.9022 16.4726 25 14.9797 25H7.02031C5.52736 25 4.26159 23.9022 4.05046 22.4243L2.01005 8.14142C1.96905 7.85444 2.05461 7.5638 2.24455 7.3448ZM4.15301 9L6.03036 22.1414C6.10073 22.6341 6.52266 23 7.02031 23H14.9797C15.4773 23 15.8993 22.6341 15.9696 22.1414L17.847 9H4.15301Z" fill="#5F5F5F"/>
</svg>
