<svg width="22" height="22" viewBox="0 0 22 22" fill="none" xmlns="http://www.w3.org/2000/svg">
<path d="M13.6066 4.87866C13.9971 5.26918 13.9971 5.90235 13.6066 6.29287L8.65686 11.2426C8.26633 11.6331 7.63317 11.6331 7.24264 11.2426C6.85212 10.8521 6.85212 10.2189 7.24264 9.8284L12.1924 4.87866C12.5829 4.48813 13.2161 4.48813 13.6066 4.87866Z" fill="#5F5F5F"/>
<path d="M16.435 9.1213C16.8256 8.73078 16.8256 8.09761 16.435 7.70709C16.0445 7.31656 15.4113 7.31656 15.0208 7.70709L10.0711 12.6568C9.68054 13.0474 9.68054 13.6805 10.0711 14.071C10.4616 14.4616 11.0948 14.4616 11.4853 14.071L16.435 9.1213Z" fill="#5F5F5F"/>
<path fill-rule="evenodd" clip-rule="evenodd" d="M19.2635 2.05025C16.5298 -0.683417 12.0976 -0.683418 9.36396 2.05025L1.11009 10.3041C0.59176 10.8224 0.591759 11.6628 1.11009 12.1812L2.99999 14.0711L0.87868 16.1924C-0.292893 17.3639 -0.292893 19.2634 0.87868 20.435C2.05025 21.6066 3.94975 21.6066 5.12132 20.435L7.24263 18.3137L9.13254 20.2036C9.65087 20.7219 10.4913 20.7219 11.0096 20.2036L19.2635 11.9497C21.9971 9.21608 21.9971 4.78392 19.2635 2.05025ZM5.82842 16.8995L4.41421 15.4853L2.29289 17.6066C1.90237 17.9971 1.90237 18.6303 2.29289 19.0208C2.68342 19.4113 3.31658 19.4113 3.70711 19.0208L5.82842 16.8995ZM10.7782 3.46447C12.7308 1.51184 15.8966 1.51184 17.8492 3.46447C19.8019 5.41709 19.8019 8.58291 17.8492 10.5355L10.0711 18.3137L3 11.2426L10.7782 3.46447Z" fill="#5F5F5F"/>
</svg>
