<svg width="18" height="26" viewBox="0 0 18 26" fill="none" xmlns="http://www.w3.org/2000/svg">
<path fill-rule="evenodd" clip-rule="evenodd" d="M14.5528 3.89443L11.5841 2.41007L10.3874 5.99999H17C17.2948 5.99999 17.5745 6.13004 17.7645 6.35539C17.9545 6.58074 18.0354 6.87843 17.9856 7.16896L17.2999 11.169C17.2176 11.649 16.8014 12 16.3143 12H15.8704C15.8702 12.0802 15.8653 12.1613 15.8553 12.2431L14.3859 24.2431C14.2631 25.2461 13.4113 26 12.4007 26H5.59931C4.58875 26 3.73697 25.2461 3.61414 24.2431L2.14475 12.2431C2.13474 12.1613 2.12979 12.0802 2.12965 12H1.68572C1.19863 12 0.7824 11.649 0.7001 11.169L0.0143855 7.16896C-0.0354185 6.87843 0.0454882 6.58074 0.235494 6.35539C0.425499 6.13004 0.705246 5.99999 1.00001 5.99999H8.27925L10.0513 0.683773C10.143 0.408758 10.3495 0.187058 10.6173 0.0761211C10.8851 -0.0348157 11.1879 -0.0240705 11.4472 0.105573L15.4472 2.10557C15.9412 2.35256 16.1414 2.95323 15.8944 3.44721C15.6475 3.94119 15.0468 4.14142 14.5528 3.89443ZM8.97662 7.99999H2.18602L2.52888 9.99999H15.4711L15.814 7.99999H9.02368C9.00804 8.00037 8.99234 8.00037 8.97662 7.99999ZM5.59931 24L4.12993 12L13.8701 12L12.4007 24H5.59931Z" fill="#5F5F5F"/>
</svg>
