<svg width="24" height="24" viewBox="0 0 24 24" fill="none" xmlns="http://www.w3.org/2000/svg">
<path fill-rule="evenodd" clip-rule="evenodd" d="M22.9638 16.8854C23.6298 15.393 24 13.7398 24 12C24 5.37258 18.6274 0 12 0C5.37258 0 0 5.37258 0 12C0 18.6274 5.37258 24 12 24C16.5885 24 20.5755 21.4246 22.5944 17.6405C22.7789 17.4393 22.9329 17.1973 23.0296 16.9073L22.9638 16.8854ZM1.84615 12C1.84615 11.7551 1.85482 11.5123 1.87186 11.2718C2.4187 12.1652 3.2983 12.9231 4.61538 12.9231C5.52233 12.9231 6.37271 12.6132 6.98315 11.9155C7.57947 11.234 7.84615 10.2976 7.84615 9.23077C7.84615 8.12118 7.99908 7.74922 8.12863 7.56882C8.2698 7.37227 8.45628 7.26121 8.97386 6.95295C9.05537 6.90441 9.14511 6.85096 9.24415 6.79154C10.5769 5.99187 11.4416 4.86774 11.8799 3.73756C12.1198 3.11889 12.2424 2.4655 12.2219 1.84853C14.5707 1.89888 16.7232 2.74685 18.4194 4.13243C17.7864 4.33812 17.1326 4.60946 16.5567 4.95409C15.9811 5.29861 15.412 5.75836 15.0493 6.36688C14.6647 7.01226 14.543 7.77888 14.8166 8.5996C15.2174 9.80216 15.8843 10.7473 16.3632 11.4259C16.494 11.6113 16.6108 11.7768 16.7043 11.9222C16.9458 12.298 17.03 12.5172 17.0448 12.6765C17.0552 12.7885 17.0417 12.97 16.8 13.2923C16.005 14.3523 15.6906 15.4004 15.792 16.3299C15.8925 17.2514 16.4053 18.0039 17.1256 18.3641C17.5069 18.5547 18.0146 18.6552 18.4938 18.7023C18.8405 18.7364 19.2195 18.747 19.6044 18.7288C17.7441 20.8295 15.0267 22.1538 12 22.1538C11.7403 22.1538 11.4828 22.1441 11.228 22.1249C11.4809 21.6707 11.6282 21.161 11.6927 20.6697C11.8502 19.472 11.5795 18.1053 10.9423 17.0585C9.95516 15.4367 8.34437 14.4118 6.29641 14.7841C5.33015 14.9598 4.37463 15.525 3.67366 16.139C3.4444 16.3398 3.22941 16.557 3.0412 16.7834C2.27857 15.3581 1.84615 13.7295 1.84615 12ZM4.1588 18.4515C5.41214 19.9731 7.09976 21.1235 9.032 21.7132C9.42353 21.6031 9.75857 21.2184 9.86233 20.4291C9.96685 19.6339 9.77598 18.693 9.36536 18.0184C8.67609 16.886 7.75096 16.3961 6.62666 16.6005C6.08819 16.6984 5.42832 17.0563 4.89009 17.5277C4.62784 17.7574 4.42496 17.988 4.29497 18.1855C4.2001 18.3296 4.16899 18.4176 4.1588 18.4515ZM3.27943 9.99516C2.9738 9.33841 2.81638 8.49922 2.7784 7.74413C4.17068 4.73239 6.99495 2.51821 10.3778 1.97504C10.3798 2.28119 10.3196 2.65498 10.1586 3.07013C9.86605 3.82457 9.26924 4.62351 8.29431 5.20847C8.22277 5.2514 8.14777 5.29504 8.07047 5.34004C7.588 5.62082 7.01537 5.95409 6.62912 6.49191C6.14711 7.16307 6 8.03267 6 9.23077C6 10.0101 5.80515 10.4583 5.59378 10.6998C5.39652 10.9253 5.09306 11.0769 4.61538 11.0769C4.07031 11.0769 3.63127 10.7512 3.27943 9.99516ZM21.1054 16.4987C21.0665 16.5242 21.0191 16.5515 20.9612 16.5799C20.7049 16.7057 20.3404 16.802 19.9114 16.8525C19.4894 16.9021 19.0511 16.9021 18.6745 16.865C18.2739 16.8256 18.0316 16.753 17.9513 16.7128C17.846 16.6602 17.6665 16.4896 17.6273 16.1297C17.5889 15.7778 17.6873 15.1862 18.2769 14.4C18.7275 13.7992 18.9448 13.173 18.8831 12.5062C18.8257 11.8867 18.5349 11.3558 18.2572 10.9239C18.1013 10.6813 17.9405 10.4524 17.7808 10.225C17.3233 9.57345 16.8739 8.93353 16.568 8.01579C16.4723 7.72881 16.5122 7.51851 16.6352 7.31197C16.7803 7.06856 17.0651 6.80139 17.5048 6.53821C18.21 6.11613 19.1304 5.81234 19.9113 5.63454C21.3141 7.37583 22.1538 9.58985 22.1538 12C22.1538 13.6155 21.7766 15.1428 21.1054 16.4987Z" fill="#5F5F5F"/>
</svg>
