<svg width="19" height="25" viewBox="0 0 19 25" fill="none" xmlns="http://www.w3.org/2000/svg">
<path d="M4.4707 9.41949C5.7081 8.90062 7.25456 8.87937 8.99414 9.73492C9.2558 9.86363 9.56099 9.87204 9.8291 9.75739C11.8931 8.87402 13.5659 8.91588 14.8135 9.43805C16.0671 9.96288 17.0238 11.0275 17.5518 12.439C18.6111 15.272 17.8899 19.435 14.3145 22.5836C13.5678 23.241 12.4515 23.4268 11.3271 23.1246L11.2695 23.1089C10.1709 22.8136 9.01057 22.8369 7.9248 23.1763C6.79474 23.5296 5.64408 23.3779 4.85352 22.7271C0.888408 19.4629 0.368617 15.2921 1.57227 12.4576C2.17935 11.0281 3.21485 9.94623 4.4707 9.41949ZM13.1777 1.08356C13.1654 2.18546 12.6502 3.15832 11.8809 3.97614C11.2137 4.68526 10.3991 5.22396 9.70801 5.56305C9.82646 4.94899 10.0494 4.35443 10.2793 3.86383C10.4247 3.55349 10.5665 3.29843 10.6699 3.12262C10.7214 3.03509 10.7634 2.96779 10.791 2.92438C10.8048 2.90274 10.8151 2.88685 10.8213 2.8775C10.8242 2.87304 10.8252 2.86924 10.8262 2.86774H10.8271V2.86871C10.8353 2.85676 10.842 2.8439 10.8496 2.8316L10.8525 2.82965V2.82867L10.8535 2.8277L10.8525 2.82672C10.8557 2.82194 10.8615 2.81488 10.8682 2.80524C10.887 2.77789 10.9198 2.7323 10.9668 2.67242C11.0613 2.5519 11.2127 2.37546 11.4238 2.17731C11.807 1.81784 12.3834 1.39143 13.1777 1.08356Z" stroke="#5F5F5F" stroke-width="2" stroke-linejoin="round"/>
</svg>
