<svg width="20" height="26" viewBox="0 0 20 26" fill="none" xmlns="http://www.w3.org/2000/svg">
<path fill-rule="evenodd" clip-rule="evenodd" d="M17.0282 0.000399951C17.2792 0.00735669 17.507 0.10676 17.6789 0.265769C17.7021 0.28719 17.7241 0.309613 17.745 0.332943C17.9078 0.514797 18 0.751826 18 1.00001V14C18 14.0565 17.9953 14.112 17.9863 14.1659C19.1586 14.5739 20 15.6887 20 17V23C20 24.6569 18.6569 26 17 26C15.3431 26 14 24.6569 14 23V17C14 15.6887 14.8414 14.5739 16.0137 14.1659C16.0047 14.112 16 14.0565 16 14V10.7808L15.0299 10.5382C13.2492 10.0931 12 8.49315 12 6.65768V4.34234C12 2.50687 13.2492 0.906935 15.0299 0.461768L16.7357 0.035308C16.81 0.0149927 16.8878 0.00303655 16.9679 0.000512851C16.9881 -0.000131996 17.0082 -0.000167717 17.0282 0.000399951ZM16 2.28079L15.5149 2.40205C14.6246 2.62464 14 3.4246 14 4.34234V6.65768C14 7.57542 14.6246 8.37538 15.5149 8.59796L16 8.71923V2.28079ZM17 16C16.4477 16 16 16.4477 16 17V23C16 23.5523 16.4477 24 17 24C17.5523 24 18 23.5523 18 23V17C18 16.4477 17.5523 16 17 16Z" fill="#5F5F5F"/>
<path fill-rule="evenodd" clip-rule="evenodd" d="M2 1.00001C2 0.447724 1.55228 9.06323e-06 1 9.06323e-06C0.447715 9.06323e-06 0 0.447724 0 1.00001V5.00001C0 6.65686 1.34315 8.00001 3 8.00001V14C3 14.0565 3.00469 14.112 3.0137 14.1659C1.84135 14.5739 1 15.6887 1 17V23C1 24.6569 2.34315 26 4 26C5.65685 26 7 24.6569 7 23V17C7 15.6887 6.15865 14.5739 4.9863 14.1659C4.99531 14.112 5 14.0565 5 14V8.00001C6.65685 8.00001 8 6.65686 8 5.00001V1.00001C8 0.447724 7.55228 9.06323e-06 7 9.06323e-06C6.44772 9.06323e-06 6 0.447724 6 1.00001V5.00001C6 5.55229 5.55228 6.00001 5 6.00001V1.00001C5 0.447724 4.55228 9.06323e-06 4 9.06323e-06C3.44772 9.06323e-06 3 0.447724 3 1.00001V6.00001C2.44772 6.00001 2 5.55229 2 5.00001V1.00001ZM3 17C3 16.4477 3.44772 16 4 16C4.55228 16 5 16.4477 5 17V23C5 23.5523 4.55228 24 4 24C3.44772 24 3 23.5523 3 23V17Z" fill="#5F5F5F"/>
</svg>
