<svg width="23" height="23" viewBox="0 0 23 23" fill="none" xmlns="http://www.w3.org/2000/svg">
<path fill-rule="evenodd" clip-rule="evenodd" d="M8.0648 15.3702C8.73431 15.7111 9.51004 15.84 10.2652 15.8534C11.379 15.8732 12.6148 15.6467 13.8101 15.2891C16.1757 14.5812 18.6425 13.2778 19.9706 11.9497C22.7042 9.21608 22.7042 4.78392 19.9706 2.05025C17.2369 -0.683418 12.8047 -0.683418 10.0711 2.05025C8.74297 3.37835 7.43963 5.84515 6.73176 8.21072C6.37408 9.40603 6.14765 10.6418 6.16741 11.7556C6.18081 12.5108 6.30972 13.2865 6.65058 13.956L5.12132 15.4853C3.94975 14.3137 2.05025 14.3137 0.87868 15.4853C-0.292893 16.6569 -0.292893 18.5563 0.87868 19.7279C1.12589 19.9751 1.40668 20.1708 1.70671 20.3141C1.84998 20.6141 2.04562 20.8949 2.29289 21.1421C3.46447 22.3137 5.36396 22.3137 6.53553 21.1421C7.70711 19.9706 7.70711 18.0711 6.53553 16.8995L8.0648 15.3702ZM18.5563 3.46447C16.6037 1.51184 13.4379 1.51184 11.4853 3.46447C10.4702 4.47951 9.2987 6.60891 8.64781 8.78407C8.32612 9.85914 8.15219 10.8799 8.1671 11.7201C8.18238 12.5818 8.39093 13.098 8.65685 13.364C8.92278 13.6299 9.43902 13.8384 10.3007 13.8537C11.141 13.8686 12.1617 13.6947 13.2367 13.373C15.4119 12.7221 17.5413 11.5506 18.5563 10.5355C20.509 8.58291 20.509 5.41709 18.5563 3.46447ZM2.29289 16.8995C2.68342 16.509 3.31658 16.509 3.70711 16.8995C3.83364 17.026 3.91789 17.1755 3.96243 17.3338C3.97165 17.3701 3.98289 17.4058 3.99605 17.4407C4.04734 17.5776 4.12638 17.6976 4.2249 17.7959C4.32323 17.8944 4.44323 17.9735 4.5801 18.0248C4.61501 18.0379 4.65071 18.0492 4.68704 18.0584C4.84529 18.1029 4.99479 18.1872 5.12132 18.3137C5.51184 18.7042 5.51184 19.3374 5.12132 19.7279C4.7308 20.1184 4.09763 20.1184 3.70711 19.7279C3.57714 19.598 3.49177 19.4437 3.44823 19.2807C3.35112 18.9171 3.06564 18.654 2.72475 18.5684L2.7167 18.566C2.56248 18.5208 2.41677 18.4376 2.29289 18.3137C1.90237 17.9232 1.90237 17.29 2.29289 16.8995Z" fill="#5F5F5F"/>
</svg>
