<svg width="24" height="25" viewBox="0 0 24 25" fill="none" xmlns="http://www.w3.org/2000/svg">
<path fill-rule="evenodd" clip-rule="evenodd" d="M17.8127 1.58348C19.1178 0.852504 20.7798 1.06079 21.8815 2.20833C22.9831 3.35576 23.1832 5.08663 22.4817 6.44596C23.1245 6.88855 23.6206 7.56829 23.8357 8.40457L23.8817 8.58339C24.3744 10.4986 23.2832 12.4672 21.4445 12.9803L19.4098 13.5482C19.226 14.6296 18.7079 15.6683 17.8195 16.5936C16.5894 17.8749 13.1864 20.4262 9.84627 22.3545C8.16851 23.323 6.43416 24.1774 4.9385 24.6356C4.19353 24.8639 3.44666 25.0133 2.76383 24.9991C2.08575 24.9849 1.32959 24.8035 0.759117 24.2093C0.188646 23.6151 0.0144906 22.8275 0.000900457 22.1212C-0.0127842 21.41 0.130705 20.6321 0.34984 19.8561C0.789789 18.2982 1.61002 16.4917 2.53989 14.7442C4.39112 11.2651 6.84055 7.72063 8.07072 6.43929C8.95844 5.51465 9.95482 4.97514 10.9923 4.78329L11.538 2.66179C12.0307 0.746605 13.9207 -0.389953 15.7594 0.12322L15.931 0.171133C16.7347 0.395436 17.3878 0.912907 17.8127 1.58348ZM19.4443 6.43929L19.8398 6.02733L19.832 5.9969C19.8487 5.99225 19.8654 5.98773 19.8821 5.98336L20.2567 5.5931C20.7054 5.12576 20.7054 4.36805 20.2567 3.90072C19.8081 3.43338 19.0806 3.43338 18.6319 3.90072L18.2544 4.29392L18.2426 4.34135L18.216 4.33394L17.8195 4.74691C17.3709 5.21425 16.6434 5.21425 16.1947 4.74691C15.8069 4.34292 15.7543 3.72194 16.037 3.25913C15.9659 2.89511 15.7042 2.58565 15.3363 2.48297L15.1647 2.43506C14.5517 2.264 13.9218 2.64285 13.7575 3.28125L13.3376 4.9138C14.6867 5.29796 15.9406 6.17457 17.0071 7.28548C18.0732 8.39584 18.9145 9.70119 19.2836 11.1056L20.8498 10.6685C21.4627 10.4974 21.8264 9.84124 21.6622 9.20284L21.6162 9.02403C21.5179 8.64203 21.2224 8.36997 20.8743 8.2949C20.4298 8.59055 19.8327 8.53614 19.4443 8.13167C18.9957 7.66433 18.9957 6.90663 19.4443 6.43929ZM12.3571 7.13767C11.4662 6.98892 10.5655 7.22548 9.69553 8.13167C8.68232 9.18702 6.35425 12.513 4.54967 15.9044C3.65165 17.5921 2.9244 19.2209 2.55427 20.5315C2.36836 21.1898 2.29116 21.7044 2.29826 22.0733C2.30171 22.2528 2.32481 22.3696 2.34739 22.439C2.35825 22.4724 2.36817 22.4923 2.37421 22.5028C2.37992 22.5128 2.38391 22.5169 2.38391 22.5169C2.38391 22.5169 2.38791 22.5211 2.39744 22.527C2.40752 22.5333 2.42669 22.5437 2.45872 22.555C2.52535 22.5785 2.63749 22.6026 2.80987 22.6062C3.16396 22.6135 3.65806 22.5331 4.29007 22.3395C4.90241 22.1519 5.58707 21.8762 6.31538 21.5348L5.63352 20.8245C5.18485 20.3572 5.18485 19.5995 5.63352 19.1322C6.0822 18.6648 6.80965 18.6648 7.25832 19.1322L8.48059 20.4053C8.56434 20.3577 8.64829 20.3096 8.73238 20.2611C9.34081 19.9098 9.94705 19.5396 10.5373 19.1627L9.28933 17.8629C8.84065 17.3955 8.84065 16.6378 9.28933 16.1705C9.738 15.7032 10.4655 15.7032 10.9141 16.1705L12.5148 17.8377C13.214 17.3466 13.8583 16.8693 14.4164 16.4337L12.9451 14.9012C12.4965 14.4339 12.4965 13.6762 12.9451 13.2088C13.3938 12.7415 14.1213 12.7415 14.5699 13.2088L16.1947 14.9012C17.0647 13.995 17.2919 13.0569 17.149 12.1289C16.9966 11.1385 16.3983 10.0361 15.3823 8.97786C14.3664 7.91968 13.3079 7.29642 12.3571 7.13767Z" fill="#5F5F5F"/>
</svg>
